<svg xmlns="http://www.w3.org/2000/svg" viewBox="0 0 64 64"><path d="M32 3a29 29 0 1 0 29 29A29 29 0 0 0 32 3m0 56a27 27 0 1 1 27-27 27 27 0 0 1-27 27m11-22a1 1 0 0 1-1 1H22a1 1 0 0 1 0-2h20a1 1 0 0 1 1 1m5.71-19.29L44.41 22l4.3 4.29a1 1 0 0 1 0 1.42 1 1 0 0 1-1.42 0L43 23.41l-4.29 4.3a1 1 0 0 1-1.42 0 1 1 0 0 1 0-1.42l4.3-4.29-4.3-4.29a1 1 0 0 1 1.42-1.42l4.29 4.3 4.29-4.3a1 1 0 0 1 1.42 1.42M23 23.41l-4.29 4.3a1 1 0 0 1-1.42 0 1 1 0 0 1 0-1.42l4.3-4.29-4.3-4.29a1 1 0 0 1 1.42-1.42l4.29 4.3 4.29-4.3a1 1 0 0 1 1.42 1.42L24.41 22l4.3 4.29a1 1 0 0 1 0 1.42 1 1 0 0 1-1.42 0Z"/></svg>