<svg viewBox="0 0 512 512" xmlns="http://www.w3.org/2000/svg"><path d="M256 51.692c54.523 0 105.846 21.293 144.492 59.816 38.523 38.646 59.816 89.969 59.816 144.492s-21.293 105.846-59.816 144.492c-38.646 38.523-89.969 59.816-144.492 59.816s-105.846-21.293-144.492-59.816C72.985 361.846 51.692 310.523 51.692 256s21.293-105.846 59.816-144.492C150.154 72.985 201.477 51.692 256 51.692M256 0C114.585 0 0 114.585 0 256s114.585 256 256 256 256-114.585 256-256S397.415 0 256 0"/><path d="M281.846 384h-51.692V230.154h51.692zm0-204.308h-51.692V128h51.692z"/></svg>