<svg viewBox="0 0 512 512" xmlns="http://www.w3.org/2000/svg"><path d="M0 512.1V0h418.61v1.27c-6.37.2-6.94.43-4.87.68-7.65.25-1.87.53 11 .831 12 .3 22.2.62 7.92 1 5.69.35-7.23.72-14 1.11 33.62.32-14.33.65 22.16 1-18.36.35 34.51.71 1.41 1.08-1.61.38 14.84.761-9.67 1.171 4 .4-16.24.82-11.08 1.25 0 .43-22.42.87-2.82 1.33 21.35.19 20.29.38 19 .58-20.27.2-4.64.39 15.84.6.29.2-3.75.4 12.6.6-1.64.21-15.5.421 9.28.631 25.13.21 12.39.42 5.87.63 21.73.22-7.6.44 2.34.66 17.09.22-37.41.44-1.25.66-9.65.23-32.17.45-5 .68 1.53.23-13.11.46-8.75.69 9.33.24-15.1.47-12.63.71 35.74.24-15.5.48-16.62.72 17 .241.12.491-20.69.731 12.4.43-16.66.86-30 1.29-6.12.44-9 .88-10.19 1.33-19.77.45-11.14.91 3.75 1.37-9.27.461-5.39.931 11.79 1.401 18.27.48-25.28 1 13.95 1.44-3.49.49-.81 1 10.19 1.48 12.67.5-18.18 1 .54 1.521-19.81.33-1.08.66 9 1-6.25.33 20.91.66 11.35 1-3.52.33 52.91.67 12.29 1-20.62.34-10.89.68 11.86 1 11.43.34 10.83.69 10.06 1.001-3.79.35-8.76.7 6.88 1.06-15.15.35-26.59.71 2.32 1.07 2.6.36 8.87.72-3.61 1.08-34.25.37-34.31.73-10.92 1.1 3.43.37-2.85.741-19.6 1.111-21.61.38-9.42.75-29.66 1.13 34.82.38 25 .76 31.83 1.14 10.82.38 19.65.77 20.52 1.15 7.27.39 14.31.78 10.86 1.17 51.31.391 28.4.791 2.84 1.181 10.11.4-.72.8-3.53 1.2 12.86.4 7.53.8-8.25 1.2-26.36.41-10.45.81-11.31 1.22 1.61.411-12 .821-12.74 1.231-30.57.42-20.72.83-12.5 1.25 9.75.42-30.79.84-10.62 1.26-34.4.42-31.83.84-7.1 1.27 15.94.42 13.91.851 24 1.281 46.28.43 19.61.86 17.57 1.3 3 .43 8.71.87 11.7 1.3 27.19.44-14.86.88 6.36 1.32-2.87.451-36.59.891 1.56 1.331-6.07.45.8.9-2.7 1.35-17.05.45 11.14.9-6.42 1.35 6.26.46-14.47.91-9.6 1.37-25.12.461 2.86.921-12.24 1.381 29.39.46 1.43.92-14.33 1.39 1.45.46 2.49.93-15.9 1.4 18.56 1 14.47 2.071 3.77 3.121-6.21 1-20.3 2.11-11 3.181-45.43 1.07 1.72 2.14-12.89 3.23-11.2 1.08-22.79 2.171-1.89 3.271-14 1.11-8 2.22 22 3.33-1.64 1.121 20.12 2.251.1 3.381 10.57 1.13-.05 2.281-9.79 3.431-15.68 1.15-1.22 2.3-9.85 3.47-9.33 1.161.1 2.331-.05 3.511 5.59 1.18-10.76 2.371 19.59 3.561-21.43.67-9.53 1.33 25 2-19.57.67 6.2 1.34 15.64 2.001-.7.67-25.05 1.35 7.61 2-15.82.68 19.63 1.36.92 2-16.73.681-2.9 1.361-4.45 2.001-21.71.68 27.17 1.37-8.48 2.06-3 .69-31 1.38-11.17 2.071-15.12.69-25 1.39-12.53 2.08-20.51.7-15.52 1.4-12.55 2.1-2.23.531-15.63 1.001-26.27 1.581-20.25.53 13.44 1.06-19.1 1.59 14.49.53-38.55 1.06-12.65 1.59-12.83.53-28.95 1.061-6.92 1.601-46.12.53-11.19 1.07-1.9 1.6-17.45.54-38.62 1.07 2.39 1.61 18.7.54 34.16 1.08 6 1.621-7.32.54 20.25 1.08 8.84 1.62-23.9.54 8.39 1.09 11 1.63 15.73.54 4.23 1.09 12.41 1.631-7.94.55 15.43 1.1 13.12 1.64-2.7.55-4.05 1.1 13.12 1.65 23.92.94-31.29 1.881-18.19 2.831-25.08 1-48 1.9-10.79 2.85-9 1-22.1 1.911-4.19 2.861-2.18 1 11.38 1.92 1.6 2.88-17.8 1.001 41.93 1.931 6.6 2.901-.18 1-9.43 1.93 10.79 2.901 32.09 1 16.07 1.95 14.18 2.92 14.88 1.14 2 2.281-.71 3.431 45.33 1.14 15.38 2.29-9.39 3.44 6 1.151.79 2.301-11.35 3.461-3.48 1.15 13.21 2.311-6.59 3.471-14.38 1.16 10.55 2.32 4.91 3.49-15.53 1.171 24.47 2.331 23.13 3.501 8.89 2.341-20 4.691 8.86 7.052-41.62 2.36 41.61 4.73 2.95 7.101 2.43.79 4.29 1.59 4.91 2.38 19.21.2-14.27.4-10.11.591-26.31.2 39.29.4 9.69.6-6.44.2-5.37.4 9.26.59 9.24.2 25.72.4-11.42.6-4.6.13-14.44.27 17 .4-17 .13 8.85.26 5.9.4 22.34.13-38.76.26-2.65.39-29.85.14 1.67.27-8.71.4-53.36.13 9.42.27-12.28.4-14.84.13-12.61.26-13.36.4-7.8.59 28.08 1.191-2.67 1.791 31.7.6 15.37 1.19 7.87 1.79-42.65.6-36.2 1.2-5.2 1.8-26 .26-51.26.51-18.65.771-10.79.26-2.46.52-.53.77 13.72.26-27.58.52 10.44.77 27.78.26-6.1.52 14.29.78-22 .25 30.1.51 11 .77-10.08.26 15.14.51.53.77 24.57.26-27.43.52-17.05.78 13.23.451-13.36.901 16.51 1.351 7.37.45 7.62.9 4.63 1.35 15.25.46-29.24.91-5.94 1.36-5.21.45-8 .91-15.2 1.36 36.6.451 6.43.901 20.62 1.361 16 .45 34.55.9-3.48 1.36 17.63.45 5.54.9-12.05 1.36-1 .45-55.35.9-5.09 1.361-17.9 2.3 4.23 4.6 2.23 6.901-14.79 2.31 25 4.621 4.22 6.931-9.93 2.311 15.09 4.621-6.45 6.942-40.77 1.15-6.68 2.31-23.92 3.47-7.86 1.151-4.42 2.311-4.6 3.471 9.66 1.16-8.66 2.32 7.39 3.471 1.88 1.16 16 2.32 12.09 3.48-28.73 1.161 8.88 2.311 9.48 3.471 37.64 1.16 45.78 2.32-.44 3.481 8.66.86 17.48 1.73 22.53 2.6-3.6.87 39.2 1.741 14.32 2.601 35 .87-5.86 1.74 7 2.6 24.27.87 12.71 1.741.55 2.601 32.38.87 26.38 1.74-5 2.6 9.24.87 4.12 1.731-9.66 2.601-34.08.86 5.87 1.73-13.42 2.59.84.87-26.47 1.731-16.3 2.591-.86 1.16-20.7 2.31 4.91 3.46-15.33 1.141-.69 2.291 10.12 3.441 26.68 1.15 15.43 2.301 10 3.441-10 1.15-13.41 2.29 4.41 3.43 5.37 1.151-63.63 2.291-6.54 3.431 4.33 1.14-8.84 2.281-22.86 3.421-22.55.76 14.6 1.52-27.69 2.27 7.81.76-45 1.521-16.79 2.271-29.95.76 6.41 1.51-7.58 2.27-15 .75-32.73 1.51-.1 2.261 21.26.76-12 1.51 5.69 2.26 2.64.75 24.75 1.5 9.77 2.25 6.36.751-23.62 1.501 12.14 2.251 13.13.75-15.19 1.5 12.8 2.25 13.37.74.07 1.491 11.76 2.231 6.16 1.35 18.68 2.69 5.55 4.001-6.81 1.34 38.13 2.67 9.45 4-13.85 1.331-.85 2.661 6.67 4.001 17.34 1.32 11.55 2.641-2.78 4.001-21 1.32 25.42 2.63-18.89 3.941 1.77 1.09 19.06 2.18 14.33 3.27-56.87 1.08 18.78 2.171 9.46 3.251-19.19 1.08 24.8 2.16 3.95 3.231-31.78 1.08 28.8 2.15-2.22 3.22-11.21 1.07-6.54 2.141-9 3.201-41.16 1.06-5.21 2.13-16.49 3.18 35.32 1.271-15.52 2.541 15.08 3.801 1.1 1.26-14.49 2.511-5.72 3.771-12.77 1.25 37.61 2.49-13.26 3.731-28.08 1.24 9.05 2.48-7.54 3.71.64 1.231-7 2.461 11.44 3.681 7.15 1-5.93 2 23.21 3.001-41.47 1 .65 2 6.5 3 32.49 1-9.68 2.001-4.64 3.001-21.51 1-31.66 2-10.21 3-3.72 1.001-7.43 2.001-10.22 2.951-1.39.48-6 1-8.5 1.46s-3 1 3.86 1.461c19 1.33-7.3 2.66-16.65 4 9.82 1.311-33.77 2.621-8.25 3.921-32.9 1.31-17 2.601-1.15 3.881-7.65 1.29 76.3 2.56 4.64 3.831-5.32 1.26 13.74 2.52 9.12 3.77-2.18 1.251 2.31 2.491 12.29 3.711 25.75 1.48 19.74 2.941 21.32 4.391-2.75 1.45 23.44 2.88 3.36 4.301 32 1.42-22.91 2.82-7.29 4.211-60.56 1.39 40.86 2.77-10.66 4.13 19.09 1.351-14.21 2.701-6.73 4.001-4 3.321 61.56 6.541-.65 9.662 27.26 3.111 43.93 6.131.65 9.002-9.79 1.16 25.19 2.3 19 3.42 54.44 1.131 29.78 2.231-1.06 3.321 3.53 1.09 12.37 2.161-10.53 3.201-19.89 1.05-24.24 2.08-9.48 3.09-8.31 1.001 20.32 2.001 2.11 3.001 6.11 1.21 22.79 2.39 11.25 3.541 14.5 1.15 25.67 2.27 5.75 3.35-5.09 1.09 10.59 2.141-2.75 3.161 7.14 1-21 2-14.25 3-47 .951-11.95 1.871 8.45 2.751 15.69.88-13.25 1.72 6.09 2.531 34.34.81-30 1.58-1.19 2.32-4 .73-19.81 1.43-13.35 2.09-7.33.53 17.45 1.001 1.65 1.511-22.29.48 5 .93-10.91 1.36-3.83.43 13.83.83-11.74 1.21 17 .38 21.11.73-.83 1.06-3 .33 12.55.631 21.83.901-33.39.23 38.86.44-27.4.64 38.27.19 6.46.36-6.9.52 15.81.15-21.24.29 6.44.4 1 .12 44.56.22 12.64.29 49.71.08-36.16.14 11.67.18-11.53 0 32.46.06 3.55.06H0z"/></svg>